<?xml version="1.0" encoding="UTF-8"?>
<svg version="1.1" xmlns="http://www.w3.org/2000/svg" width="512" height="512">
<path d="M0 0 C14.55073224 13.50326169 25.02409836 31.1829918 28.9375 50.75 C28.9375 52.07 28.9375 53.39 28.9375 54.75 C29.52058583 54.74886084 30.10367167 54.74772168 30.70442677 54.746548 C65.26742714 54.67940502 99.83041449 54.6279359 134.39346623 54.59680401 C138.54404921 54.59305192 142.69463206 54.58916895 146.84521484 54.58520508 C147.67151665 54.58441815 148.49781846 54.58363122 149.34915972 54.58282044 C162.72625225 54.56976866 176.10330607 54.54611606 189.48037565 54.51854161 C203.2078025 54.49048109 216.9352091 54.47382237 230.66266346 54.46773452 C239.13235846 54.46361942 247.60194406 54.45062497 256.07160538 54.4262506 C261.88058944 54.41038543 267.689517 54.40560141 273.49852115 54.40949587 C276.8494207 54.41141623 280.19997522 54.40684183 283.55086708 54.39238358 C287.18722147 54.37746225 290.82310747 54.38104561 294.45947266 54.38923645 C295.5139626 54.38049793 296.56845255 54.3717594 297.65489674 54.36275607 C304.01781364 54.40150557 310.52270032 54.64217992 315.49398232 59.16655952 C319.26548251 63.49086771 320.2527921 66.99755153 320.1484375 72.6953125 C319.66618069 77.39285106 317.43415739 80.51957573 314 83.5625 C309.91818732 86.47808049 307.03939199 86.87527112 302.10367966 86.87304783 C301.12733149 86.87503888 300.15098333 86.87702993 299.14504886 86.87908131 C298.0750166 86.87616847 297.00498434 86.87325563 295.90252686 86.87025452 C294.7638816 86.87110894 293.62523634 86.87196337 292.45208669 86.87284368 C288.62266437 86.87449562 284.7932855 86.86898173 280.96386719 86.86352539 C278.22439547 86.8626871 275.48492461 86.86335735 272.74545288 86.8639679 C266.84033505 86.86449246 260.93522827 86.8613527 255.03011322 86.85573006 C246.4922896 86.84760594 237.95447132 86.8449989 229.41664425 86.84374207 C215.56486918 86.84155298 201.7131 86.83489679 187.86132812 86.82543945 C174.40494822 86.81626162 160.94856991 86.8091826 147.4921875 86.80493164 C146.66285362 86.80466892 145.83351975 86.80440619 144.97905454 86.80413551 C140.81856528 86.80283048 136.65807601 86.80156677 132.49758673 86.80032361 C97.97755358 86.78995547 63.45752743 86.77234105 28.9375 86.75 C28.79199707 87.99563721 28.64649414 89.24127441 28.49658203 90.5246582 C25.97439102 112.11690366 11.52415585 132.90133944 -5.14453125 146.2109375 C-25.96632302 162.04206199 -51.73187513 169.3284676 -77.78735352 165.97851562 C-98.18875112 163.04987245 -115.68744074 154.54233257 -131.0625 140.75 C-131.70703125 140.17636719 -132.3515625 139.60273438 -133.015625 139.01171875 C-151.68318989 121.39525548 -160.53617816 96.16465508 -161.375 71 C-160.76634313 44.36231091 -150.49142657 20.91174373 -132.3125 1.5625 C-94.95484372 -33.92353021 -38.2365285 -32.96656286 0 0 Z M-115.15234375 30.03515625 C-127.2057891 44.56786607 -130.32586601 60.68434082 -129.32128906 79.05419922 C-127.83258686 94.561982 -119.74904023 106.86113284 -109.0625 117.75 C-108.14017578 118.7090625 -108.14017578 118.7090625 -107.19921875 119.6875 C-95.05524654 131.33739197 -79.15787325 135.24791867 -62.82958984 135.09960938 C-44.25722157 134.60903102 -29.67493651 127.00151675 -17.0625 113.75 C-4.3691103 99.87031219 -0.28112841 83.89682616 -0.78125 65.53125 C-1.49208866 50.39038646 -8.12041348 37.93972091 -18.0625 26.75 C-18.61679688 26.11320312 -19.17109375 25.47640625 -19.7421875 24.8203125 C-29.04598312 14.80426458 -43.38127693 7.44215935 -57.13085938 6.62744141 C-81.14805446 5.81204281 -98.8717021 12.23295931 -115.15234375 30.03515625 Z " fill="#000000" transform="translate(174.0625,105.25)"/>
<path d="M0 0 C0.845625 0.75023437 1.69125 1.50046875 2.5625 2.2734375 C19.67711846 18.37187549 30.4065377 41.97087311 31.203125 65.49609375 C31.67442299 95.02679067 22.37557247 118.91133975 1.9375 140.5 C-16.87105429 158.81699648 -41.72605863 167.48117272 -67.8125 167.1484375 C-89.50178519 166.13839726 -110.69738092 158.47152781 -127 144 C-127.6703125 143.47148437 -128.340625 142.94296875 -129.03125 142.3984375 C-144.99015725 129.5426511 -154.53552716 109.60778522 -159 90 C-159 89.01 -159 88.02 -159 87 C-159.8778027 87.00227832 -159.8778027 87.00227832 -160.77333879 87.00460267 C-195.46158606 87.09412618 -230.14981025 87.16275188 -264.8381485 87.20426132 C-269.00375284 87.20926411 -273.16935695 87.2144414 -277.33496094 87.21972656 C-278.57889957 87.22130043 -278.57889957 87.22130043 -279.84796828 87.22290608 C-293.27357561 87.24030858 -306.69911439 87.27184542 -320.12468106 87.30861118 C-333.9018266 87.34602492 -347.67893625 87.36823677 -361.4561305 87.37635398 C-369.95657175 87.38184086 -378.45681923 87.39916706 -386.95720083 87.43166587 C-392.78721903 87.45281911 -398.61713715 87.45919822 -404.44719094 87.45400551 C-407.81033278 87.4514449 -411.17286346 87.45754423 -414.53599167 87.4768219 C-418.1856009 87.4967169 -421.83438044 87.49193982 -425.48400879 87.48101807 C-427.07158013 87.49849512 -427.07158013 87.49849512 -428.69122362 87.51632524 C-434.94688993 87.46570986 -439.81248806 86.67161269 -445 83 C-448.52567085 79.11272188 -449.80453004 75.45216314 -450.16015625 70.30859375 C-449.87996759 66.26977678 -448.42349152 63.20713548 -446 60 C-440.94366698 55.80431941 -436.49886423 54.87403592 -430.07436657 54.87695217 C-429.10299415 54.87496112 -428.13162173 54.87297007 -427.13081378 54.87091869 C-425.54180749 54.87528795 -425.54180749 54.87528795 -423.92070007 54.87974548 C-422.7893675 54.87889106 -421.65803492 54.87803663 -420.49241954 54.87715632 C-416.69374221 54.87550651 -412.89510883 54.88101479 -409.09643555 54.88647461 C-406.37652051 54.88731321 -403.65660633 54.88664254 -400.93669128 54.8860321 C-395.07688121 54.88550784 -389.21708228 54.88864446 -383.35727501 54.89426994 C-374.88498556 54.90239814 -366.41270149 54.90500152 -357.94040857 54.90625793 C-344.19456294 54.90844637 -330.44872326 54.91510084 -316.70288086 54.92456055 C-303.3503421 54.93374003 -289.99780495 54.94081825 -276.64526367 54.94506836 C-275.82216651 54.94533108 -274.99906935 54.94559381 -274.15102985 54.94586449 C-270.02177936 54.94716953 -265.89252887 54.94843324 -261.76327837 54.94967639 C-227.50884797 54.96004254 -193.25442463 54.97765521 -159 55 C-158.86772507 54.24608978 -158.73545013 53.49217957 -158.59916687 52.71542358 C-158.42295303 51.72571564 -158.2467392 50.73600769 -158.06518555 49.71630859 C-157.89166061 48.73552338 -157.71813568 47.75473816 -157.53935242 46.74423218 C-154.69376756 32.26585909 -146.44030192 19.05585874 -137 8 C-136.36191406 7.16984375 -135.72382813 6.3396875 -135.06640625 5.484375 C-120.07119289 -12.54389664 -95.86664947 -22.24726007 -73.1875 -24.75 C-46.0981035 -26.44083883 -20.35661141 -18.16709216 0 0 Z M-113.6875 28.75 C-125.76195842 43.35895559 -130.16271859 60.35195392 -129 79 C-126.90360955 95.96345301 -117.5890962 111.07114323 -104.671875 122.05078125 C-88.874114 133.57575602 -71.24145191 137.49174408 -51.86132812 134.69091797 C-35.96097686 131.55648317 -21.53193801 121.71363222 -11.84765625 108.84765625 C-1.95297878 93.59771993 1.8940235 76.87808127 -1 58.875 C-4.73259999 41.60736452 -14.55939679 27.14618709 -28.9609375 16.9375 C-33.47426479 14.06010883 -37.97058405 11.82432584 -43 10 C-43.87527344 9.68160156 -44.75054687 9.36320312 -45.65234375 9.03515625 C-70.54629928 1.458735 -96.2421581 10.02248375 -113.6875 28.75 Z " fill="#000000" transform="translate(463,265)"/>
</svg>
