<svg width="95" height="88" viewBox="0 0 95 88" fill="none" xmlns="http://www.w3.org/2000/svg">
<line x1="74" x2="74" y2="39" stroke="#4A4A4A" stroke-width="20"/>
<line x1="21" x2="21" y2="39" stroke="#4A4A4A" stroke-width="20"/>
<mask id="path-3-outside-1_28_271" maskUnits="userSpaceOnUse" x="0" y="57" width="95" height="28" fill="black">
<rect fill="white" y="57" width="95" height="28"/>
<path d="M2.15 72.8426C4.61667 70.8092 8.05 68.6926 12.45 66.4926C16.85 64.3259 21.9833 62.4759 27.85 60.9426C33.7167 59.4092 40.0167 58.6426 46.75 58.6426C51.95 58.6426 56.9167 59.1092 61.65 60.0426C66.3833 61.0092 70.7667 62.2592 74.8 63.7926C78.8333 65.3592 82.4 67.0259 85.5 68.7926C88.6 70.5926 91.1 72.3092 93 73.9426L89.05 82.8426C87.05 81.2759 84.05 79.6092 80.05 77.8426C76.05 76.1092 71.2333 74.6426 65.6 73.4426C59.9667 72.2426 53.6833 71.6426 46.75 71.6426C40.25 71.6426 34.3 72.1759 28.9 73.2426C23.5 74.3426 18.8667 75.6759 15 77.2426C11.1 78.8092 8.16667 80.3259 6.2 81.7926L2.15 72.8426Z"/>
</mask>
<path d="M2.15 72.8426C4.61667 70.8092 8.05 68.6926 12.45 66.4926C16.85 64.3259 21.9833 62.4759 27.85 60.9426C33.7167 59.4092 40.0167 58.6426 46.75 58.6426C51.95 58.6426 56.9167 59.1092 61.65 60.0426C66.3833 61.0092 70.7667 62.2592 74.8 63.7926C78.8333 65.3592 82.4 67.0259 85.5 68.7926C88.6 70.5926 91.1 72.3092 93 73.9426L89.05 82.8426C87.05 81.2759 84.05 79.6092 80.05 77.8426C76.05 76.1092 71.2333 74.6426 65.6 73.4426C59.9667 72.2426 53.6833 71.6426 46.75 71.6426C40.25 71.6426 34.3 72.1759 28.9 73.2426C23.5 74.3426 18.8667 75.6759 15 77.2426C11.1 78.8092 8.16667 80.3259 6.2 81.7926L2.15 72.8426Z" fill="#4A4A4A"/>
<path d="M2.15 72.8426L1.51392 72.0709L0.923462 72.5577L1.23894 73.2548L2.15 72.8426ZM12.45 66.4926L12.0082 65.5954L12.0028 65.5982L12.45 66.4926ZM27.85 60.9426L27.5971 59.9751L27.85 60.9426ZM61.65 60.0426L61.8501 59.0628L61.8435 59.0615L61.65 60.0426ZM74.8 63.7926L75.1621 62.8604L75.1554 62.8578L74.8 63.7926ZM85.5 68.7926L86.0022 67.9278L85.9951 67.9238L85.5 68.7926ZM93 73.9426L93.914 74.3482L94.2156 73.6688L93.6519 73.1843L93 73.9426ZM89.05 82.8426L88.4333 83.6298L89.4435 84.4211L89.964 83.2482L89.05 82.8426ZM80.05 77.8426L80.454 76.9278L80.4476 76.925L80.05 77.8426ZM65.6 73.4426L65.8083 72.4645L65.6 73.4426ZM28.9 73.2426L28.7062 72.2615L28.7004 72.2627L28.9 73.2426ZM15 77.2426L15.3728 78.1705L15.3755 78.1694L15 77.2426ZM6.2 81.7926L5.28893 82.2048L5.80139 83.3373L6.79782 82.5942L6.2 81.7926ZM2.15 72.8426L2.78607 73.6142C5.17235 71.6471 8.53265 69.5693 12.8972 67.387L12.45 66.4926L12.0028 65.5982C7.56734 67.8159 4.06098 69.9713 1.51392 72.0709L2.15 72.8426ZM12.45 66.4926L12.8918 67.3897C17.2191 65.2588 22.2868 63.4302 28.1029 61.9101L27.85 60.9426L27.5971 59.9751C21.6799 61.5216 16.4809 63.393 12.0082 65.5954L12.45 66.4926ZM27.85 60.9426L28.1029 61.9101C33.8785 60.4005 40.0927 59.6426 46.75 59.6426V58.6426V57.6426C39.9406 57.6426 33.5549 58.4179 27.5971 59.9751L27.85 60.9426ZM46.75 58.6426V59.6426C51.89 59.6426 56.7916 60.1038 61.4565 61.0237L61.65 60.0426L61.8435 59.0615C57.0417 58.1146 52.01 57.6426 46.75 57.6426V58.6426ZM61.65 60.0426L61.4499 61.0224C66.1365 61.9795 70.4673 63.2153 74.4446 64.7273L74.8 63.7926L75.1554 62.8578C71.066 61.3032 66.6301 60.039 61.8501 59.0628L61.65 60.0426ZM74.8 63.7926L74.4379 64.7247C78.4347 66.2772 81.9555 67.9236 85.0049 69.6614L85.5 68.7926L85.9951 67.9238C82.8445 66.1283 79.232 64.4413 75.1621 62.8604L74.8 63.7926ZM85.5 68.7926L84.9979 69.6574C88.0654 71.4385 90.5098 73.1206 92.3481 74.7009L93 73.9426L93.6519 73.1843C91.6902 71.4979 89.1346 69.7466 86.0021 67.9278L85.5 68.7926ZM93 73.9426L92.086 73.5369L88.136 82.4369L89.05 82.8426L89.964 83.2482L93.914 74.3482L93 73.9426ZM89.05 82.8426L89.6667 82.0553C87.571 80.4137 84.4838 78.7077 80.454 76.9278L80.05 77.8426L79.646 78.7573C83.6162 80.5108 86.529 82.1381 88.4333 83.6298L89.05 82.8426ZM80.05 77.8426L80.4476 76.925C76.3709 75.1584 71.4873 73.6742 65.8083 72.4645L65.6 73.4426L65.3917 74.4206C70.9794 75.6109 75.7291 77.0601 79.6524 78.7601L80.05 77.8426ZM65.6 73.4426L65.8083 72.4645C60.0943 71.2473 53.7397 70.6426 46.75 70.6426V71.6426V72.6426C53.627 72.6426 59.839 73.2378 65.3917 74.4206L65.6 73.4426ZM46.75 71.6426V70.6426C40.1963 70.6426 34.1803 71.1802 28.7062 72.2615L28.9 73.2426L29.0938 74.2236C34.4197 73.1716 40.3037 72.6426 46.75 72.6426V71.6426ZM28.9 73.2426L28.7004 72.2627C23.2581 73.3713 18.5628 74.7201 14.6245 76.3158L15 77.2426L15.3755 78.1694C19.1706 76.6317 23.7419 75.3139 29.0996 74.2225L28.9 73.2426ZM15 77.2426L14.6272 76.3146C10.6953 77.8941 7.6701 79.4488 5.60217 80.991L6.2 81.7926L6.79782 82.5942C8.66323 81.2031 11.5047 79.7244 15.3728 78.1705L15 77.2426ZM6.2 81.7926L7.11106 81.3803L3.06106 72.4303L2.15 72.8426L1.23894 73.2548L5.28893 82.2048L6.2 81.7926Z" fill="#4A4A4A" mask="url(#path-3-outside-1_28_271)"/>
</svg>
